<svg width="212" height="98" viewBox="0 0 212 98" fill="none" xmlns="http://www.w3.org/2000/svg">
<path fill-rule="evenodd" clip-rule="evenodd" d="M37.4951 37.2615C37.4951 39.3246 38.1453 41.168 39.32 42.8148C16.7514 52.5838 0 63.3423 0 70.7641C0 102.368 26.1827 99.4362 57.879 95.8875L57.8792 95.8875C68.7247 94.6733 80.2157 93.3867 91.5242 93.3867C94.5124 93.3867 97.4513 93.3926 100.334 93.3984H100.336C117.681 93.4331 132.986 93.4637 144.748 92.185C152.687 93.7423 163.923 95.54 179.624 97.7856C197.505 97.7856 212 86.5317 212 72.6493C212 60.669 187.062 50.1782 168.736 47.5284C166.627 35.598 160.69 24.4781 145.123 20.6456C139.992 -0.831422 123.217 -0.403992 100.343 0.178868C96.4308 0.278542 92.3406 0.38276 88.0998 0.38276C70.9068 0.38276 37.4951 19.9086 37.4951 37.2615Z" fill="#E8EBEF"/>
</svg>
