<svg width="305" height="127" viewBox="0 0 305 127" fill="none" xmlns="http://www.w3.org/2000/svg">
<path fill-rule="evenodd" clip-rule="evenodd" d="M251.057 48.2879C251.057 50.9614 250.121 53.3504 248.431 55.4845C280.9 68.1444 305 82.0864 305 91.7046C305 132.66 267.331 128.861 221.731 124.262L221.731 124.262C206.127 122.689 189.595 121.022 173.326 121.022C169.026 121.022 164.797 121.029 160.648 121.037C135.695 121.082 113.676 121.121 96.7546 119.464C85.332 121.482 69.1672 123.812 46.5786 126.722C20.8539 126.722 6.84607e-06 112.138 6.84607e-06 94.1476C6.84607e-06 78.622 35.8781 65.0268 62.2429 61.593C65.277 46.1321 73.8193 31.7216 96.2145 26.755C103.596 -1.07746 127.73 -0.523541 160.639 0.231798C166.267 0.360967 172.151 0.496026 178.253 0.496026C202.988 0.496026 251.057 25.7999 251.057 48.2879Z" fill="#E8EBEF"/>
</svg>
