<svg xmlns="http://www.w3.org/2000/svg" width="1497" height="112" viewBox="0 0 1497 112" fill="none">
  <path d="M6 56C55.5 -10.6667 105 -10.6667 154.5 56C204 122.667 253.5 122.667 303 56C352.5 -10.6667 402 -10.6667 451.5 56C501 122.667 550.5 122.667 600 56C649.5 -10.6667 699 -10.6667 748.5 56C798 122.667 847.5 122.667 897 56C946.5 -10.6667 996 -10.6667 1045.5 56C1095 122.667 1144.5 122.667 1194 56C1243.5 -10.6667 1293 -10.6667 1342.5 56C1392 122.667 1441.5 122.667 1491 56" stroke="#92C8FC" stroke-width="12" stroke-linecap="round"/>
</svg>