<svg width="1497" height="818" viewBox="0 0 1497 818" fill="none" xmlns="http://www.w3.org/2000/svg">
<path d="M109.152 555.202C128.32 391.181 370.453 410.493 526.205 397V441.935C368.476 664.013 783.553 649.901 783.553 649.901C783.553 649.901 1275.71 627.619 1454 627.619V682.209C1393.3 670.621 1182.27 672.157 1087.06 687.344L1084.38 687.78L990.103 704.677L526.205 781.736C419.867 802.161 390.928 838.713 241.5 801C149.788 777.853 96.4369 664.013 109.152 555.202Z" fill="#92C8FC"/>
<rect x="1234" y="1" width="186.882" height="515" fill="#203D93"/>
<rect x="1275" y="50.2038" width="104.875" height="403.471" fill="#E8EBEF"/>
<rect x="1234" y="1" width="41.0036" height="515" fill="#7895CB"/>
<rect x="1379.88" y="1" width="41.0036" height="515" fill="#7895CB"/>
<path d="M1275 1V50.2038H1290.38M1290.38 1V50.2038M1290.38 50.2038H1306.15M1306.15 1V50.2038M1306.15 50.2038H1322.32M1322.32 1V50.2038M1322.32 50.2038H1337.3M1337.3 1V50.2038M1337.3 50.2038H1351.89M1351.89 1V50.2038M1351.89 50.2038H1365.49M1379.09 1V50.2038H1365.49M1366.08 1L1365.49 50.2038" stroke="#7895CB" stroke-width="3"/>
<path d="M1297.87 453.675L1297.87 43.6433" stroke="#203D93" stroke-width="5"/>
<path d="M1357.8 453.675L1357.8 43.6433" stroke="#203D93" stroke-width="5"/>
<path d="M1327.83 453.675V43.6433" stroke="#203D93" stroke-width="5"/>
<path d="M1420.88 1L1454 31.5336V516H1420.88V1Z" fill="#172C6B"/>
<path d="M1275 1V50.2038H1290.38M1290.38 1V50.2038M1290.38 50.2038H1306.15M1306.15 1V50.2038M1306.15 50.2038H1322.32M1322.32 1V50.2038M1322.32 50.2038H1337.3M1337.3 1V50.2038M1337.3 50.2038H1351.89M1351.89 1V50.2038M1351.89 50.2038H1365.49M1379.09 1V50.2038H1365.49M1366.08 1L1365.49 50.2038" stroke="#7895CB" stroke-width="3"/>
<path d="M1420.88 1L1454 31.5336V516H1420.88V1Z" fill="#172C6B"/>
<rect x="1303.39" y="460.236" width="48.1004" height="54.1242" fill="#172C6B"/>
<path fill-rule="evenodd" clip-rule="evenodd" d="M1252.73 475.19H1245.48C1244.61 474.127 1243.39 472 1245.48 472H1252.73V475.19ZM1260.27 475.19H1253.02V472H1260.27C1262.36 472 1261.14 474.127 1260.27 475.19ZM1250.7 486.21H1255.34V573.213H1250.7V486.21Z" fill="#172C6B"/>
<path d="M1245.48 475.19L1244.32 476.14L1244.77 476.69H1245.48V475.19ZM1252.73 475.19V476.69H1254.23V475.19H1252.73ZM1252.73 472H1254.23V470.5H1252.73V472ZM1253.02 475.19H1251.52V476.69H1253.02V475.19ZM1260.27 475.19V476.69H1260.98L1261.43 476.14L1260.27 475.19ZM1253.02 472V470.5H1251.52V472H1253.02ZM1255.34 486.21H1256.84V484.71H1255.34V486.21ZM1250.7 486.21V484.71H1249.2V486.21H1250.7ZM1255.34 573.213V574.713H1256.84V573.213H1255.34ZM1250.7 573.213H1249.2V574.713H1250.7V573.213ZM1256.21 486.5V488H1256.89L1257.34 487.488L1256.21 486.5ZM1260.27 481.86L1261.4 482.848L1261.77 482.424V481.86H1260.27ZM1260.27 475.19V473.69H1258.77V475.19H1260.27ZM1249.54 486.5L1248.41 487.488L1248.86 488H1249.54V486.5ZM1245.48 481.86H1243.98V482.424L1244.35 482.848L1245.48 481.86ZM1245.48 475.19H1246.98V473.69H1245.48V475.19ZM1245.48 476.69H1252.73V473.69H1245.48V476.69ZM1245.48 470.5C1244.76 470.5 1243.87 470.68 1243.29 471.435C1242.72 472.174 1242.79 473.023 1242.91 473.531C1243.14 474.545 1243.85 475.564 1244.32 476.14L1246.64 474.24C1246.47 474.026 1246.27 473.758 1246.11 473.486C1245.95 473.201 1245.86 472.984 1245.83 472.861C1245.8 472.705 1245.9 472.956 1245.67 473.262C1245.42 473.585 1245.16 473.5 1245.48 473.5V470.5ZM1252.73 470.5H1245.48V473.5H1252.73V470.5ZM1254.23 475.19V472H1251.23V475.19H1254.23ZM1253.02 476.69H1260.27V473.69H1253.02V476.69ZM1251.52 472V475.19H1254.52V472H1251.52ZM1260.27 470.5H1253.02V473.5H1260.27V470.5ZM1261.43 476.14C1261.9 475.564 1262.61 474.545 1262.84 473.531C1262.96 473.023 1263.03 472.174 1262.46 471.435C1261.88 470.68 1260.99 470.5 1260.27 470.5V473.5C1260.59 473.5 1260.33 473.585 1260.08 473.262C1259.85 472.956 1259.95 472.705 1259.92 472.861C1259.89 472.984 1259.8 473.201 1259.64 473.486C1259.48 473.758 1259.29 474.026 1259.11 474.24L1261.43 476.14ZM1255.34 484.71H1250.7V487.71H1255.34V484.71ZM1256.84 573.213V486.21H1253.84V573.213H1256.84ZM1250.7 574.713H1255.34V571.713H1250.7V574.713ZM1249.2 486.21V573.213H1252.2V486.21H1249.2ZM1257.34 487.488L1261.4 482.848L1259.14 480.873L1255.08 485.513L1257.34 487.488ZM1261.77 481.86V475.19H1258.77V481.86H1261.77ZM1251.52 475.19V486.21H1254.52V475.19H1251.52ZM1256.21 485H1255.34V488H1256.21V485ZM1263.75 473.69H1260.27V476.69H1263.75V473.69ZM1260.27 470.5H1253.02V473.5H1260.27V470.5ZM1250.67 485.513L1246.61 480.873L1244.35 482.848L1248.41 487.488L1250.67 485.513ZM1246.98 481.86V475.19H1243.98V481.86H1246.98ZM1251.23 475.19V486.21H1254.23V475.19H1251.23ZM1249.54 488H1250.7V485H1249.54V488ZM1242 476.69H1245.48V473.69H1242V476.69ZM1245.48 473.5H1252.73V470.5H1245.48V473.5Z" fill="#172C6B"/>
<path fill-rule="evenodd" clip-rule="evenodd" d="M1481.3 497.356H1471.4C1470.21 495.904 1468.55 493 1471.4 493H1481.3V497.356ZM1491.59 497.356H1481.69V493H1491.59C1494.45 493 1492.78 495.904 1491.59 497.356ZM1478.53 512.405H1484.86V631.213H1478.53V512.405Z" fill="#172C6B"/>
<path d="M1471.4 497.356L1470.24 498.306L1470.69 498.856H1471.4V497.356ZM1481.3 497.356V498.856H1482.8V497.356H1481.3ZM1481.3 493H1482.8V491.5H1481.3V493ZM1481.69 497.356H1480.19V498.856H1481.69V497.356ZM1491.59 497.356V498.856H1492.31L1492.76 498.306L1491.59 497.356ZM1481.69 493V491.5H1480.19V493H1481.69ZM1484.86 512.405H1486.36V510.905H1484.86V512.405ZM1478.53 512.405V510.905H1477.03V512.405H1478.53ZM1484.86 631.213V632.713H1486.36V631.213H1484.86ZM1478.53 631.213H1477.03V632.713H1478.53V631.213ZM1486.05 512.801V514.301H1486.73L1487.18 513.789L1486.05 512.801ZM1491.59 506.465L1492.72 507.453L1493.09 507.029V506.465H1491.59ZM1491.59 497.356V495.856H1490.09V497.356H1491.59ZM1476.94 512.801L1475.81 513.789L1476.26 514.301H1476.94V512.801ZM1471.4 506.465H1469.9V507.029L1470.27 507.453L1471.4 506.465ZM1471.4 497.356H1472.9V495.856H1471.4V497.356ZM1471.4 498.856H1481.3V495.856H1471.4V498.856ZM1471.4 491.5C1470.48 491.5 1469.48 491.729 1468.84 492.563C1468.21 493.381 1468.28 494.339 1468.42 494.969C1468.71 496.225 1469.61 497.536 1470.24 498.306L1472.56 496.406C1472.3 496.095 1472.02 495.705 1471.79 495.306C1471.55 494.893 1471.4 494.543 1471.34 494.299C1471.28 494.021 1471.39 494.162 1471.22 494.39C1471.03 494.634 1470.88 494.5 1471.4 494.5V491.5ZM1481.3 491.5H1471.4V494.5H1481.3V491.5ZM1482.8 497.356V493H1479.8V497.356H1482.8ZM1481.69 498.856H1491.59V495.856H1481.69V498.856ZM1480.19 493V497.356H1483.19V493H1480.19ZM1491.59 491.5H1481.69V494.5H1491.59V491.5ZM1492.76 498.306C1493.39 497.536 1494.28 496.225 1494.57 494.969C1494.72 494.339 1494.78 493.381 1494.15 492.563C1493.51 491.729 1492.51 491.5 1491.59 491.5V494.5C1492.11 494.5 1491.96 494.634 1491.77 494.39C1491.6 494.162 1491.71 494.021 1491.65 494.299C1491.59 494.543 1491.44 494.893 1491.2 495.306C1490.97 495.705 1490.69 496.095 1490.43 496.406L1492.76 498.306ZM1484.86 510.905H1478.53V513.905H1484.86V510.905ZM1486.36 631.213V512.405H1483.36V631.213H1486.36ZM1478.53 632.713H1484.86V629.713H1478.53V632.713ZM1477.03 512.405V631.213H1480.03V512.405H1477.03ZM1487.18 513.789L1492.72 507.453L1490.47 505.477L1484.92 511.814L1487.18 513.789ZM1493.09 506.465V497.356H1490.09V506.465H1493.09ZM1480.19 497.356V512.405H1483.19V497.356H1480.19ZM1486.05 511.301H1484.86V514.301H1486.05V511.301ZM1496.35 495.856H1491.59V498.856H1496.35V495.856ZM1491.59 491.5H1481.69V494.5H1491.59V491.5ZM1478.07 511.814L1472.53 505.477L1470.27 507.453L1475.81 513.789L1478.07 511.814ZM1472.9 506.465V497.356H1469.9V506.465H1472.9ZM1479.8 497.356V512.405H1482.8V497.356H1479.8ZM1476.94 514.301H1478.53V511.301H1476.94V514.301ZM1466.64 498.856H1471.4V495.856H1466.64V498.856ZM1471.4 494.5H1481.3V491.5H1471.4V494.5Z" fill="#172C6B"/>
<path d="M1168.5 293.496L1216 308.289V543H1168.5V293.496Z" fill="#172C6B"/>
<rect x="655" y="293.496" width="513.496" height="249.504" fill="#7895CB"/>
<rect x="853.311" y="267" width="197.556" height="276" fill="#203D93"/>
<rect x="667.819" y="309.688" width="185.492" height="218.592" fill="#E8EBEF"/>
<rect x="1050.87" y="309.688" width="104.056" height="218.592" fill="#E8EBEF"/>
<rect x="911.371" y="324.408" width="128.185" height="25.024" fill="#E8EBEF"/>
<rect x="860.851" y="384.76" width="128.185" height="25.024" fill="#E8EBEF"/>
<rect x="862.359" y="309.688" width="61.8306" height="8.832" fill="#E8EBEF"/>
<rect x="949.827" y="309.688" width="89.7298" height="8.832" fill="#E8EBEF"/>
<rect x="911.371" y="445.848" width="128.185" height="25.024" fill="#E8EBEF"/>
<rect x="860.851" y="445.848" width="28.6532" height="25.024" fill="#E8EBEF"/>
<rect x="862.359" y="431.128" width="61.8306" height="8.832" fill="#E8EBEF"/>
<rect x="949.827" y="431.128" width="89.7298" height="8.832" fill="#E8EBEF"/>
<rect x="860.851" y="370.776" width="61.0766" height="8.832" fill="#E8EBEF"/>
<rect x="948.318" y="370.776" width="89.7298" height="8.832" fill="#E8EBEF"/>
<path d="M668.573 339.128L853.31 339.128" stroke="#203D93" stroke-width="5"/>
<path d="M853.31 277.672L1050.87 278.04" stroke="#7895CB" stroke-width="5"/>
<path d="M668.573 361.944L853.31 361.944" stroke="#203D93" stroke-width="5"/>
<path d="M668.573 384.76L853.31 384.76" stroke="#203D93" stroke-width="5"/>
<path d="M668.573 407.576L853.31 407.576" stroke="#203D93" stroke-width="5"/>
<path d="M668.573 430.392L853.31 430.392" stroke="#203D93" stroke-width="5"/>
<path d="M668.573 453.208L853.31 453.208" stroke="#203D93" stroke-width="5"/>
<path d="M668.573 476.024L853.31 476.024" stroke="#203D93" stroke-width="5"/>
<path d="M668.573 498.84L853.31 498.84" stroke="#203D93" stroke-width="5"/>
<path d="M1050.87 339.128L1154.92 339.128" stroke="#203D93" stroke-width="5"/>
<path d="M1050.87 361.944L1154.92 361.944" stroke="#203D93" stroke-width="5"/>
<path d="M1050.87 384.76L1154.92 384.76" stroke="#203D93" stroke-width="5"/>
<path d="M1050.87 407.576L1154.92 407.576" stroke="#203D93" stroke-width="5"/>
<path d="M1050.87 430.392L1154.92 430.392" stroke="#203D93" stroke-width="5"/>
<path d="M1050.87 453.208L1154.92 453.208" stroke="#203D93" stroke-width="5"/>
<path d="M1050.87 476.024L1154.92 476.024" stroke="#203D93" stroke-width="5"/>
<path d="M1050.87 498.84L1154.92 498.84" stroke="#203D93" stroke-width="5"/>
<rect x="862.359" y="498.84" width="61.8306" height="36.8" fill="#E8EBEF"/>
<rect x="981.496" y="498.84" width="58.0605" height="36.8" fill="#E8EBEF"/>
<path d="M726.633 309.688L726.633 528.28" stroke="#7895CB" stroke-width="5"/>
<path d="M793.742 309.688L793.742 528.28" stroke="#7895CB" stroke-width="5"/>
<path d="M1102.9 309.688L1102.9 528.28" stroke="#7895CB" stroke-width="5"/>
<rect x="929.468" y="492.952" width="45.996" height="48.576" fill="#172C6B"/>
<path d="M1063.69 276.538L1050.87 267L1050.11 543H1063.69V276.538Z" fill="#7895CB"/>
<rect x="897.044" y="459.096" width="259.387" height="13.248" fill="#172C6B"/>
<path d="M905.339 477.128L897.044 472.344L1156.43 471.608V459.096L1160.96 463.88V477.128H1156.43H905.339Z" fill="#7895CB"/>
<path fill-rule="evenodd" clip-rule="evenodd" d="M55.0215 582.147L37.456 618.765H55.0215L19.8904 657.588H55.0215L0 700.382H55.0215V729.059H65.8708V729.5H76.9785V700.824H132L76.9785 658.029H112.11L76.9785 619.206H94.544L76.9785 582.588L66.1292 558.026V557L65.9026 557.513L65.8708 557.441V557.585L55.0215 582.147Z" fill="#95ACD6"/>
<path fill-rule="evenodd" clip-rule="evenodd" d="M135.526 635.862L113.969 680.802H135.526L92.411 728.449H135.526L68 780.969H135.526V816.163H148.841V816.705H162.474V781.511H230L162.474 728.991H205.589L162.474 681.344H184.031L162.474 636.404L149.159 606.259V605L148.88 605.63L148.841 605.541V605.718L135.526 635.862Z" fill="#95ACD6"/>
<path fill-rule="evenodd" clip-rule="evenodd" d="M1343.67 474.789L1328.45 506.517H1343.67L1313.23 540.157H1343.67L1296 577.236H1343.67V602.084H1353.08V602.466H1362.7V577.619H1410.37L1362.7 540.539H1393.14L1362.7 506.899H1377.92L1362.7 475.171L1353.3 453.889V453L1353.1 453.444L1353.08 453.382V453.507L1343.67 474.789Z" fill="#95ACD6"/>
<path fill-rule="evenodd" clip-rule="evenodd" d="M1440.11 573.68H1427.2C1425.65 571.787 1423.48 568 1427.2 568H1440.11V573.68ZM1453.53 573.68H1440.62V568H1453.53C1457.25 568 1455.08 571.787 1453.53 573.68ZM1436.49 593.302H1444.75V748.213H1436.49V593.302Z" fill="#172C6B"/>
<path d="M1427.2 573.68L1426.04 574.63L1426.49 575.18H1427.2V573.68ZM1440.11 573.68V575.18H1441.61V573.68H1440.11ZM1440.11 568H1441.61V566.5H1440.11V568ZM1440.62 573.68H1439.12V575.18H1440.62V573.68ZM1453.53 573.68V575.18H1454.24L1454.69 574.63L1453.53 573.68ZM1440.62 568V566.5H1439.12V568H1440.62ZM1444.75 593.302H1446.25V591.802H1444.75V593.302ZM1436.49 593.302V591.802H1434.99V593.302H1436.49ZM1444.75 748.213V749.713H1446.25V748.213H1444.75ZM1436.49 748.213H1434.99V749.713H1436.49V748.213ZM1446.3 593.819V595.319H1446.98L1447.43 594.806L1446.3 593.819ZM1453.53 585.557L1454.66 586.544L1455.03 586.12V585.557H1453.53ZM1453.53 573.68V572.18H1452.03V573.68H1453.53ZM1434.43 593.819L1433.3 594.806L1433.74 595.319H1434.43V593.819ZM1427.2 585.557H1425.7V586.12L1426.07 586.544L1427.2 585.557ZM1427.2 573.68H1428.7V572.18H1427.2V573.68ZM1427.2 575.18H1440.11V572.18H1427.2V575.18ZM1427.2 566.5C1426.07 566.5 1424.93 566.784 1424.22 567.708C1423.52 568.615 1423.58 569.698 1423.76 570.465C1424.11 571.998 1425.22 573.639 1426.04 574.63L1428.36 572.73C1427.62 571.828 1426.87 570.629 1426.68 569.795C1426.59 569.379 1426.71 569.397 1426.6 569.535C1426.48 569.689 1426.47 569.5 1427.2 569.5V566.5ZM1440.11 566.5H1427.2V569.5H1440.11V566.5ZM1441.61 573.68V568H1438.61V573.68H1441.61ZM1440.62 575.18H1453.53V572.18H1440.62V575.18ZM1439.12 568V573.68H1442.12V568H1439.12ZM1453.53 566.5H1440.62V569.5H1453.53V566.5ZM1454.69 574.63C1455.5 573.639 1456.62 571.998 1456.97 570.465C1457.14 569.698 1457.2 568.615 1456.51 567.708C1455.8 566.784 1454.66 566.5 1453.53 566.5V569.5C1454.26 569.5 1454.25 569.689 1454.13 569.535C1454.02 569.397 1454.14 569.379 1454.04 569.795C1453.85 570.629 1453.11 571.828 1452.37 572.73L1454.69 574.63ZM1444.75 591.802H1436.49V594.802H1444.75V591.802ZM1446.25 748.213V593.302H1443.25V748.213H1446.25ZM1436.49 749.713H1444.75V746.713H1436.49V749.713ZM1434.99 593.302V748.213H1437.99V593.302H1434.99ZM1447.43 594.806L1454.66 586.544L1452.4 584.569L1445.17 592.831L1447.43 594.806ZM1455.03 585.557V573.68H1452.03V585.557H1455.03ZM1439.12 573.68V593.302H1442.12V573.68H1439.12ZM1446.3 592.319H1444.75V595.319H1446.3V592.319ZM1459.73 572.18H1453.53V575.18H1459.73V572.18ZM1453.53 566.5H1440.62V569.5H1453.53V566.5ZM1435.55 592.831L1428.33 584.569L1426.07 586.544L1433.3 594.806L1435.55 592.831ZM1428.7 585.557V573.68H1425.7V585.557H1428.7ZM1438.61 573.68V593.302H1441.61V573.68H1438.61ZM1434.43 595.319H1436.49V592.319H1434.43V595.319ZM1421 575.18H1427.2V572.18H1421V575.18ZM1427.2 569.5H1440.11V566.5H1427.2V569.5Z" fill="#172C6B"/>
<path d="M576.607 354L642.349 383.053V696H576.607V354Z" fill="#172C6B"/>
<path d="M944.636 450.291L1002 471.165V696H944.636V450.291Z" fill="#172C6B"/>
<rect x="371" y="420.961" width="205.607" height="275.039" fill="#95ACD6"/>
<rect x="632.037" y="489.029" width="181.759" height="60.3204" fill="#203D93"/>
<rect x="609.478" y="549.35" width="181.759" height="146.65" fill="#5F7BB3"/>
<rect x="776.413" y="450.291" width="168.224" height="245.709" fill="#6D8AC4"/>
<rect x="423.207" y="377.243" width="153.399" height="43.7184" fill="#172C6B"/>
<rect x="549.536" y="370.049" width="27.0705" height="50.9126" fill="#203D93"/>
<rect x="397.426" y="377.243" width="23.2427" height="179.181" transform="rotate(-90 397.426 377.243)" fill="#203D93"/>
<rect x="642.349" y="512.272" width="134.063" height="26.0097" fill="#E8EBEF"/>
<rect x="623.013" y="573.146" width="154.044" height="47.0388" fill="#E8EBEF"/>
<rect x="371" y="454.165" width="205.607" height="84.1165" fill="#E8EBEF"/>
<rect x="371" y="548.796" width="205.607" height="68.068" fill="#E8EBEF"/>
<rect x="813.796" y="591.408" width="130.841" height="67.5146" fill="#E8EBEF"/>
<rect x="795.104" y="525" width="130.841" height="33.7573" fill="#E8EBEF"/>
<rect x="795.104" y="471.32" width="130.841" height="33.7573" fill="#E8EBEF"/>
<path d="M944.636 591.408L983.953 604.413V658.922H944.636V591.408Z" fill="#E8EBEF"/>
<path d="M602.388 375.583L615.923 382.5V415.981H602.388V375.583Z" fill="#E8EBEF"/>
<path d="M623.013 386.65L632.681 391.673V415.981H623.013V386.65Z" fill="#E8EBEF"/>
<rect x="622.369" y="629.592" width="154.044" height="50.9126" fill="#E8EBEF"/>
<path d="M387.758 616.868V454.165" stroke="#7895CB" stroke-width="5"/>
<path d="M430.942 616.868V454.165" stroke="#7895CB" stroke-width="5"/>
<path d="M475.415 616.868V454.165" stroke="#7895CB" stroke-width="5"/>
<path d="M518.599 616.868V454.165" stroke="#7895CB" stroke-width="5"/>
<path d="M560.493 616.868V454.165" stroke="#7895CB" stroke-width="5"/>
<path d="M793.815 558.757V471.32" stroke="#6D8AC4" stroke-width="5"/>
<path d="M836.999 558.757V471.32" stroke="#6D8AC4" stroke-width="5"/>
<path d="M881.472 558.757V471.32" stroke="#6D8AC4" stroke-width="5"/>
<path d="M924.656 558.757V471.32" stroke="#6D8AC4" stroke-width="5"/>
<path d="M813.796 669.99V582.553" stroke="#6D8AC4" stroke-width="5"/>
<path d="M856.979 669.99V582.553" stroke="#6D8AC4" stroke-width="5"/>
<path d="M901.453 669.99V582.553" stroke="#6D8AC4" stroke-width="5"/>
<path d="M942.703 669.99V582.553" stroke="#6D8AC4" stroke-width="5"/>
<path d="M964.617 658.922L964.617 596.388" stroke="#172C6B" stroke-width="5"/>
<path d="M654.595 680.505V573.146" stroke="#5F7BB3" stroke-width="5"/>
<path d="M697.779 680.505V573.146" stroke="#5F7BB3" stroke-width="5"/>
<path d="M742.252 680.505V573.146" stroke="#5F7BB3" stroke-width="5"/>
<path d="M666.197 538.282V512.272" stroke="#203D93" stroke-width="5"/>
<path d="M709.381 538.282V512.272" stroke="#203D93" stroke-width="5"/>
<path d="M753.854 538.282V512.272" stroke="#203D93" stroke-width="5"/>
<rect x="386.469" y="648.961" width="48.9847" height="47.0388" fill="#172C6B"/>
<rect x="449.633" y="648.961" width="48.9847" height="47.0388" fill="#172C6B"/>
<rect x="512.798" y="648.961" width="48.9847" height="47.0388" fill="#172C6B"/>
<path d="M1342.28 784C1122.17 784 1209.86 784 1057.9 784C905.946 784 975.561 784 792 784C792 663.602 915.184 566 1067.14 566C1219.1 566 1342.28 663.602 1342.28 784Z" fill="#95ACD6"/>
<path d="M1067.14 566.81C1376.21 566.81 1432 707.299 1432 784H1344.42C1329.46 638.532 1200.56 566.81 1067.14 566.81Z" fill="#172C6B"/>
<mask id="mask0_379_517" style="mask-type:alpha" maskUnits="userSpaceOnUse" x="792" y="566" width="551" height="218">
<path d="M1342.28 784C1122.17 784 1209.86 784 1057.9 784C905.946 784 975.561 784 792 784C792 663.602 915.184 566 1067.14 566C1219.1 566 1342.28 663.602 1342.28 784Z" fill="#7895CB"/>
</mask>
<g mask="url(#mask0_379_517)">
</g>
<mask id="mask1_379_517" style="mask-type:alpha" maskUnits="userSpaceOnUse" x="792" y="566" width="551" height="218">
<path d="M1342.28 784C1122.17 784 1209.86 784 1057.9 784C905.946 784 975.561 784 792 784C792 663.602 915.184 566 1067.14 566C1219.1 566 1342.28 663.602 1342.28 784Z" fill="#7895CB"/>
</mask>
<g mask="url(#mask1_379_517)">
<rect x="798.836" y="628.401" width="40.1602" height="155.599" fill="#7895CB"/>
<rect x="1294.43" y="628.401" width="40.1602" height="155.599" fill="#7895CB"/>
<rect x="867.193" y="549.792" width="40.1602" height="234.208" fill="#7895CB"/>
<rect x="938.969" y="549.792" width="40.1602" height="234.208" fill="#7895CB"/>
<rect x="1010.75" y="549.792" width="40.1602" height="234.208" fill="#7895CB"/>
<rect x="1082.52" y="549.792" width="40.1602" height="234.208" fill="#7895CB"/>
<rect x="1154.3" y="549.792" width="40.1602" height="234.208" fill="#7895CB"/>
<rect x="1226.07" y="549.792" width="40.1602" height="234.208" fill="#7895CB"/>
<rect x="972.294" y="681.888" width="188.838" height="102.112" fill="#203D93"/>
<path d="M806.973 712.279L972.294 710.253V734.565H798.836C798.836 734.565 801.834 725.651 802.69 723.219C803.547 720.788 806.973 712.279 806.973 712.279Z" fill="#E8EBEF"/>
<path d="M1161.13 710.253H1326.05C1326.05 710.253 1329.42 717.256 1331.17 722.004C1332.92 726.751 1335.02 734.565 1335.02 734.565H1161.13V710.253Z" fill="#E8EBEF"/>
<rect x="948.369" y="631.643" width="21.3618" height="22.6914" fill="#E8EBEF"/>
<rect x="1056.03" y="631.643" width="21.3618" height="22.6914" fill="#E8EBEF"/>
<rect x="1163.7" y="631.643" width="21.3618" height="22.6914" fill="#E8EBEF"/>
</g>
</svg>
